<svg id="Layer_1" data-name="Layer 1" xmlns="http://www.w3.org/2000/svg" viewBox="0 0 242.41 21.87"><defs><style>.cls-1{fill:#58595b;}</style></defs><title>TAG Registered Provider_2020</title><path class="cls-1" d="M13.6,10.65a13.4,13.4,0,0,1,2.35.19,5.46,5.46,0,0,1,1.89.71,3.62,3.62,0,0,1,1.26,1.37,4.67,4.67,0,0,1,.46,2.21A4.69,4.69,0,0,1,18.74,18a5.07,5.07,0,0,1-2.41,1.73l1.06,2.05c.39.79.8,1.53,1.21,2.22A25,25,0,0,0,20,26.13c0,.09,0,.17-.16.25a1.87,1.87,0,0,1-.72.11h-.42a1.78,1.78,0,0,1-.78-.14,1,1,0,0,1-.39-.28,17.11,17.11,0,0,1-1-1.68l-.93-1.78L14.24,20H12v6.24c0,.17-.3.25-.9.25h-.24c-.63,0-.95-.08-.95-.25V10.65ZM12,18.35h2a4.55,4.55,0,0,0,1.57-.24,2.8,2.8,0,0,0,1.07-.65,2.51,2.51,0,0,0,.6-1,3.87,3.87,0,0,0,.19-1.26,3.11,3.11,0,0,0-.34-1.56,2.53,2.53,0,0,0-.86-.86,3,3,0,0,0-1.13-.37,9.68,9.68,0,0,0-1.15-.08H12Z" transform="translate(-9.88 -9.77)"/><path class="cls-1" d="M23.5,21.38A5.12,5.12,0,0,0,23.82,23a3,3,0,0,0,.78,1.13,3.76,3.76,0,0,0,2.6.79,6.94,6.94,0,0,0,2.9-.7.44.44,0,0,1,.27,0c.07,0,.17.17.28.45l.11.26a2,2,0,0,1,.18.58.29.29,0,0,1-.13.23,7.85,7.85,0,0,1-4,1,5,5,0,0,1-4-1.56,6.18,6.18,0,0,1-1.36-4.21,8.51,8.51,0,0,1,.37-2.54,5.82,5.82,0,0,1,1.05-2,5,5,0,0,1,1.66-1.3,5,5,0,0,1,2.2-.46,4.41,4.41,0,0,1,2.48.66,4.48,4.48,0,0,1,1.55,1.76,6.81,6.81,0,0,1,.55,1.65,9.34,9.34,0,0,1,.18,1.87,2.72,2.72,0,0,1,0,.65.18.18,0,0,1-.17.14Zm5.94-1.65a4.52,4.52,0,0,0-.16-1.21,3.29,3.29,0,0,0-.5-1.05,2.53,2.53,0,0,0-.84-.75,2.48,2.48,0,0,0-1.2-.29,3,3,0,0,0-2.07.79,4.11,4.11,0,0,0-1.1,2.51Z" transform="translate(-9.88 -9.77)"/><path class="cls-1" d="M42.27,14.87a3.16,3.16,0,0,1,.69.05.28.28,0,0,1,.19.24c0,.26,0,.63.05,1.12s0,1,0,1.53,0,1.05,0,1.56,0,.92,0,1.24v3.65c0,1,0,1.77-.09,2.41a8.44,8.44,0,0,1-.33,1.73,4.25,4.25,0,0,1-.71,1.39,4.91,4.91,0,0,1-1.12,1,5.17,5.17,0,0,1-1.42.63,6.57,6.57,0,0,1-1.61.2c-.28,0-.58,0-.89,0a8.86,8.86,0,0,1-.92-.13,6.18,6.18,0,0,1-.85-.22,3.49,3.49,0,0,1-.66-.29c-.08,0-.11-.1-.11-.22a1.79,1.79,0,0,1,.13-.55l.09-.26a2.41,2.41,0,0,1,.21-.51.21.21,0,0,1,.16-.11.56.56,0,0,1,.24.07l.29.11a5.7,5.7,0,0,0,1,.27,5.39,5.39,0,0,0,1.11.1,3.91,3.91,0,0,0,2.27-.6,3,3,0,0,0,1.12-1.91,7.07,7.07,0,0,0,.11-1.05c0-.41,0-.76,0-1.06a3.64,3.64,0,0,1-1.48.95,5.45,5.45,0,0,1-1.73.31A4.78,4.78,0,0,1,36,26.06a4,4,0,0,1-1.46-1.19,5.16,5.16,0,0,1-.87-1.81,8.45,8.45,0,0,1-.29-2.25,7.93,7.93,0,0,1,.39-2.57,5.65,5.65,0,0,1,1.06-1.94,4.71,4.71,0,0,1,1.6-1.22,4.5,4.5,0,0,1,2-.43,3.76,3.76,0,0,1,1.7.37,2.74,2.74,0,0,1,1.16,1h0v-.9a.22.22,0,0,1,.17-.22,2.22,2.22,0,0,1,.73-.07Zm-1,5.37a13.19,13.19,0,0,0-.07-1.64,2.57,2.57,0,0,0-.26-.91,2.17,2.17,0,0,0-.85-.85,3,3,0,0,0-1.53-.34,2.67,2.67,0,0,0-2.28,1.14,5.09,5.09,0,0,0-.84,3.08,5,5,0,0,0,.75,3,2.62,2.62,0,0,0,2.26,1,3.75,3.75,0,0,0,1.61-.36,3.21,3.21,0,0,0,1.21-.93Z" transform="translate(-9.88 -9.77)"/><path class="cls-1" d="M46.5,10.33a1.38,1.38,0,0,1,2,0,1.36,1.36,0,0,1,0,1.95,1.38,1.38,0,0,1-2-1.95Zm1.07,4.54a2.12,2.12,0,0,1,.78.08.21.21,0,0,1,.12.18V26.22a.22.22,0,0,1-.12.19,2.12,2.12,0,0,1-.78.08h-.13a2.75,2.75,0,0,1-.8-.07.21.21,0,0,1-.15-.2V15.13a.21.21,0,0,1,.15-.19,2.42,2.42,0,0,1,.8-.07Z" transform="translate(-9.88 -9.77)"/><path class="cls-1" d="M58.64,16.87a3.18,3.18,0,0,1-.26.33.79.79,0,0,1-.16.16.14.14,0,0,1-.12,0L58,17.31a6.41,6.41,0,0,0-1.23-.7,3.19,3.19,0,0,0-1.33-.27,3.76,3.76,0,0,0-.71.08,2.79,2.79,0,0,0-.72.25,1.69,1.69,0,0,0-.55.48,1.27,1.27,0,0,0-.22.76,1.23,1.23,0,0,0,.21.73,1.73,1.73,0,0,0,.54.5,3.31,3.31,0,0,0,.74.32l.8.21c.46.11.9.25,1.34.4a4.63,4.63,0,0,1,1.19.62,3.16,3.16,0,0,1,.86,1,2.8,2.8,0,0,1,.33,1.43,3.44,3.44,0,0,1-.35,1.56,3.49,3.49,0,0,1-1,1.14,4.13,4.13,0,0,1-1.39.7,6.36,6.36,0,0,1-1.71.23,6.1,6.1,0,0,1-2-.34,6.45,6.45,0,0,1-1.6-.78.22.22,0,0,1-.13-.27,4.07,4.07,0,0,1,.22-.53l.11-.24a1.7,1.7,0,0,1,.33-.53c.07,0,.18,0,.33.07a7.65,7.65,0,0,0,1.39.63,4.78,4.78,0,0,0,1.47.25,3.89,3.89,0,0,0,.8-.1,3.09,3.09,0,0,0,.8-.31,1.82,1.82,0,0,0,.59-.55,1.44,1.44,0,0,0,.23-.82,1.2,1.2,0,0,0-.24-.75,2.18,2.18,0,0,0-.61-.51,3.72,3.72,0,0,0-.81-.34c-.3-.09-.59-.16-.87-.22a10.12,10.12,0,0,1-1.53-.45,3.4,3.4,0,0,1-1.09-.67,2.6,2.6,0,0,1-.65-.93,3.24,3.24,0,0,1-.23-1.2,3.1,3.1,0,0,1,.33-1.45,3.58,3.58,0,0,1,.88-1.09,4,4,0,0,1,1.29-.69,5,5,0,0,1,1.57-.24,5.64,5.64,0,0,1,2,.33,4.61,4.61,0,0,1,1.52.88.39.39,0,0,1,.14.29.9.9,0,0,1-.23.5Z" transform="translate(-9.88 -9.77)"/><path class="cls-1" d="M63.41,11.61a2.12,2.12,0,0,1,.78.08.22.22,0,0,1,.12.19v3h2.77a.16.16,0,0,1,.16.12,2.17,2.17,0,0,1,0,.56v.18a2.32,2.32,0,0,1,0,.57.16.16,0,0,1-.16.13H64.31v6.49a6,6,0,0,0,.07,1,1.29,1.29,0,0,0,.28.65,1.46,1.46,0,0,0,1.13.39,3.51,3.51,0,0,0,.77-.09,6.25,6.25,0,0,0,.72-.19c.12,0,.2,0,.24,0a1.26,1.26,0,0,1,.16.4l.06.28a1.73,1.73,0,0,1,.08.49.3.3,0,0,1-.14.22,3.35,3.35,0,0,1-1.06.4,5.4,5.4,0,0,1-1.25.15,3.09,3.09,0,0,1-2.2-.73,2.17,2.17,0,0,1-.66-1.11,7.2,7.2,0,0,1-.18-1.79V16.43H61a.16.16,0,0,1-.16-.13,2.32,2.32,0,0,1,0-.57v-.18a2.17,2.17,0,0,1,0-.56.16.16,0,0,1,.16-.12h1.38v-3a.21.21,0,0,1,.14-.2,2.9,2.9,0,0,1,.81-.07Z" transform="translate(-9.88 -9.77)"/><path class="cls-1" d="M71.26,21.38A5.12,5.12,0,0,0,71.58,23a3,3,0,0,0,.78,1.13,3.76,3.76,0,0,0,2.6.79,6.94,6.94,0,0,0,2.9-.7.44.44,0,0,1,.27,0c.07,0,.16.17.28.45l.11.26a2,2,0,0,1,.18.58.27.27,0,0,1-.13.23,7.85,7.85,0,0,1-4,1,5,5,0,0,1-4-1.56,6.17,6.17,0,0,1-1.35-4.21,8.52,8.52,0,0,1,.36-2.54,5.82,5.82,0,0,1,1-2,5,5,0,0,1,1.66-1.3,5,5,0,0,1,2.2-.46,4.41,4.41,0,0,1,2.48.66,4.48,4.48,0,0,1,1.55,1.76,6.81,6.81,0,0,1,.55,1.65,9.34,9.34,0,0,1,.18,1.87,2.72,2.72,0,0,1,0,.65.18.18,0,0,1-.17.14Zm5.94-1.65A4.52,4.52,0,0,0,77,18.52a3.29,3.29,0,0,0-.5-1.05,2.53,2.53,0,0,0-.84-.75,2.48,2.48,0,0,0-1.2-.29,3,3,0,0,0-2.07.79,4.11,4.11,0,0,0-1.1,2.51Z" transform="translate(-9.88 -9.77)"/><path class="cls-1" d="M82.83,14.87a3.45,3.45,0,0,1,.75.05.22.22,0,0,1,.16.21l0,2.27a5.07,5.07,0,0,1,1.49-2A2.81,2.81,0,0,1,87,14.74a2.25,2.25,0,0,1,.46,0c.11,0,.17.08.19.15a2.16,2.16,0,0,1,0,.48v.33a4.56,4.56,0,0,1,0,.66.18.18,0,0,1-.21.16,3,3,0,0,0-1,.17,2.91,2.91,0,0,0-.81.45,4.1,4.1,0,0,0-.62.63,7.71,7.71,0,0,0-.52.75,4.12,4.12,0,0,0-.53,1.89c0,.31,0,.76,0,1.37s0,1.23,0,1.88v2.52a.22.22,0,0,1-.12.19,2.23,2.23,0,0,1-.79.08h-.13a2.75,2.75,0,0,1-.8-.07.2.2,0,0,1-.14-.2v-7.5c0-.37,0-.74,0-1.11s0-.72,0-1,0-.6,0-.85,0-.45,0-.59a.22.22,0,0,1,.13-.19,2.27,2.27,0,0,1,.77-.07Z" transform="translate(-9.88 -9.77)"/><path class="cls-1" d="M90.78,21.38A4.86,4.86,0,0,0,91.09,23a3,3,0,0,0,.79,1.13,3.73,3.73,0,0,0,2.59.79,7,7,0,0,0,2.91-.7.41.41,0,0,1,.26,0c.07,0,.17.17.29.45l.11.26a2.18,2.18,0,0,1,.17.58.27.27,0,0,1-.13.23,7.81,7.81,0,0,1-4,1,5.06,5.06,0,0,1-4-1.56,6.17,6.17,0,0,1-1.35-4.21,8.52,8.52,0,0,1,.36-2.54,5.67,5.67,0,0,1,1.06-2,4.78,4.78,0,0,1,1.66-1.3,5,5,0,0,1,2.2-.46,4.23,4.23,0,0,1,4,2.42,6.41,6.41,0,0,1,.55,1.65,9.34,9.34,0,0,1,.18,1.87,3.77,3.77,0,0,1,0,.65.18.18,0,0,1-.18.14Zm5.94-1.65a4.53,4.53,0,0,0-.17-1.21,3.27,3.27,0,0,0-.49-1.05,2.56,2.56,0,0,0-.85-.75,2.48,2.48,0,0,0-1.2-.29,3,3,0,0,0-2.07.79,4.11,4.11,0,0,0-1.1,2.51Z" transform="translate(-9.88 -9.77)"/><path class="cls-1" d="M109.59,9.77a2.85,2.85,0,0,1,.71.05.23.23,0,0,1,.19.23V23.74a5.43,5.43,0,0,0,0,.65.76.76,0,0,0,.12.35.38.38,0,0,0,.24.15,2.09,2.09,0,0,0,.38,0c.07,0,.12,0,.15.13a1.61,1.61,0,0,1,0,.47v.15a2.13,2.13,0,0,1,0,.54.27.27,0,0,1-.15.19,2.18,2.18,0,0,1-.46.11l-.51,0a1.44,1.44,0,0,1-.91-.32,1.86,1.86,0,0,1-.61-1h0a3.5,3.5,0,0,1-1.3,1,4.58,4.58,0,0,1-2.07.44,4.23,4.23,0,0,1-3.45-1.53,6.52,6.52,0,0,1-1.25-4.26,8.48,8.48,0,0,1,.33-2.37,6.32,6.32,0,0,1,1-2,4.87,4.87,0,0,1,1.67-1.38,5,5,0,0,1,2.36-.52,4.47,4.47,0,0,1,1.38.22,4.12,4.12,0,0,1,1.11.5V10.05a.22.22,0,0,1,.18-.23,3.24,3.24,0,0,1,.76-.05Zm-1.08,7.48a3.51,3.51,0,0,0-1.07-.59,4,4,0,0,0-1.31-.23,2.93,2.93,0,0,0-2.47,1.2,5.2,5.2,0,0,0-.92,3.21,6.38,6.38,0,0,0,.23,1.79,3.94,3.94,0,0,0,.64,1.28,2.65,2.65,0,0,0,1,.77,2.71,2.71,0,0,0,1.2.27,3.78,3.78,0,0,0,1.14-.19,2.42,2.42,0,0,0,1-.56,2,2,0,0,0,.51-1,12.4,12.4,0,0,0,.13-2.05Z" transform="translate(-9.88 -9.77)"/><path class="cls-1" d="M120.76,10.65a4.26,4.26,0,0,1,.9,0,.52.52,0,0,1,.31.23l7.33,12.19V10.89c0-.16.28-.24.83-.24h.18c.59,0,.88.08.88.24V26.24c0,.11-.07.17-.21.2a4.57,4.57,0,0,1-.82,0h-.07a4,4,0,0,1-.9-.06.52.52,0,0,1-.31-.23L121.51,14V26.24c0,.17-.28.25-.84.25h-.17c-.59,0-.88-.08-.88-.25V10.89c0-.1.07-.17.21-.2a4.91,4.91,0,0,1,.82,0Z" transform="translate(-9.88 -9.77)"/><path class="cls-1" d="M138.32,10.65a12,12,0,0,1,3.58.44,5.58,5.58,0,0,1,2.42,1.49A6.25,6.25,0,0,1,145.75,15a10.58,10.58,0,0,1,.51,3.51,11.26,11.26,0,0,1-.55,3.66A6.79,6.79,0,0,1,144,24.86a5.12,5.12,0,0,1-2.38,1.28,13.42,13.42,0,0,1-3.21.35h-3.81V10.65Zm-1.61,14.1h1.76a8.62,8.62,0,0,0,2.18-.27,3.91,3.91,0,0,0,1.78-1,4.67,4.67,0,0,0,1.26-2,9.71,9.71,0,0,0,.41-2.94,9.52,9.52,0,0,0-.33-2.64,5.26,5.26,0,0,0-.92-1.85,4.27,4.27,0,0,0-1.65-1.23,6.64,6.64,0,0,0-2.6-.44h-1.89Z" transform="translate(-9.88 -9.77)"/><path class="cls-1" d="M154.09,10.65q.18,0,.18.6v.26q0,.63-.18.63h-1.6V25h1.6q.18,0,.18.63v.26c0,.4-.06.61-.18.61h-5.3a.14.14,0,0,1-.14-.11,1.85,1.85,0,0,1,0-.52v-.24a1.81,1.81,0,0,1,0-.52.14.14,0,0,1,.14-.11h1.61V12.14h-1.61a.13.13,0,0,1-.14-.11,1.81,1.81,0,0,1,0-.52v-.24a1.9,1.9,0,0,1,0-.52.13.13,0,0,1,.14-.1Z" transform="translate(-9.88 -9.77)"/><path class="cls-1" d="M165.22,12.49a1,1,0,0,1-.34.42.25.25,0,0,1-.27,0,4.88,4.88,0,0,0-1.22-.56,5.34,5.34,0,0,0-1.53-.21,3.33,3.33,0,0,0-1.21.2,2.37,2.37,0,0,0-.84.53,2,2,0,0,0-.48.75,2.34,2.34,0,0,0-.16.86,1.82,1.82,0,0,0,.52,1.33,5.27,5.27,0,0,0,1.31,1c.53.3,1.09.59,1.69.87a10.78,10.78,0,0,1,1.7,1,5.33,5.33,0,0,1,1.31,1.41,3.86,3.86,0,0,1,.51,2.06,5,5,0,0,1-.32,1.85,3.78,3.78,0,0,1-.95,1.43,4.46,4.46,0,0,1-1.59.93,6.66,6.66,0,0,1-2.2.33,9.36,9.36,0,0,1-2.55-.34,5.74,5.74,0,0,1-1.89-.9c-.18-.15-.13-.45.13-.9l.15-.26a1.46,1.46,0,0,1,.35-.38.26.26,0,0,1,.27,0,6.26,6.26,0,0,0,1.67.79,5.67,5.67,0,0,0,1.63.29,4.64,4.64,0,0,0,1.27-.17,3.31,3.31,0,0,0,1-.48,2.56,2.56,0,0,0,.69-.78,2.21,2.21,0,0,0,.25-1.08,2.34,2.34,0,0,0-.51-1.56,5.35,5.35,0,0,0-1.3-1.07,16.65,16.65,0,0,0-1.69-.85,10.31,10.31,0,0,1-1.7-.94,5,5,0,0,1-1.3-1.3,3.4,3.4,0,0,1-.51-1.93,4.52,4.52,0,0,1,.36-1.85,4.06,4.06,0,0,1,1-1.38,4.54,4.54,0,0,1,1.46-.86,5.46,5.46,0,0,1,1.76-.29,6.82,6.82,0,0,1,1,.07,7.26,7.26,0,0,1,1,.22,6,6,0,0,1,1,.35,3.65,3.65,0,0,1,.78.46c.08.06.1.16.06.31a2.14,2.14,0,0,1-.19.46Z" transform="translate(-9.88 -9.77)"/><path class="cls-1" d="M178,10.65a11.45,11.45,0,0,1,2.33.22,4.94,4.94,0,0,1,1.88.77,3.63,3.63,0,0,1,1.25,1.46,5.23,5.23,0,0,1,.46,2.32,7,7,0,0,1-.25,1.77,4.31,4.31,0,0,1-.84,1.65,4.74,4.74,0,0,1-1.62,1.22,5.83,5.83,0,0,1-2.55.49c-.38,0-.77,0-1.16,0s-.76-.05-1.13-.1v5.83c0,.17-.3.25-.9.25h-.25c-.63,0-.94-.08-.94-.25V10.65Zm-1.63,8.07c.34,0,.69.08,1,.1l1.08,0a3.06,3.06,0,0,0,2.48-.93,3.65,3.65,0,0,0,.78-2.42,3.59,3.59,0,0,0-.34-1.69,2.51,2.51,0,0,0-.86-.93,3,3,0,0,0-1.13-.41,8.09,8.09,0,0,0-1.17-.09H176.4Z" transform="translate(-9.88 -9.77)"/><path class="cls-1" d="M186.74,14.87a3.59,3.59,0,0,1,.75.05.21.21,0,0,1,.15.21l.05,2.27a5.15,5.15,0,0,1,1.48-2,2.81,2.81,0,0,1,1.73-.64,2.32,2.32,0,0,1,.46,0,.27.27,0,0,1,.19.15,2.16,2.16,0,0,1,0,.48v.33a4.56,4.56,0,0,1,0,.66.2.2,0,0,1-.21.16,3,3,0,0,0-1.05.17,2.72,2.72,0,0,0-.8.45,3.75,3.75,0,0,0-.63.63c-.18.24-.35.49-.52.75a4.12,4.12,0,0,0-.52,1.89c0,.31,0,.76-.06,1.37s0,1.23,0,1.88v2.52a.22.22,0,0,1-.12.19,2.12,2.12,0,0,1-.78.08h-.13a2.9,2.9,0,0,1-.81-.07.21.21,0,0,1-.14-.2v-7.5c0-.37,0-.74,0-1.11s0-.72,0-1,0-.6,0-.85,0-.45,0-.59a.2.2,0,0,1,.13-.19,2.23,2.23,0,0,1,.77-.07Z" transform="translate(-9.88 -9.77)"/><path class="cls-1" d="M201.39,15.75a4.62,4.62,0,0,1,1.29,1.91,7.77,7.77,0,0,1,.45,2.75,8.37,8.37,0,0,1-.4,2.74,5.39,5.39,0,0,1-1.11,2,4.4,4.4,0,0,1-1.72,1.19,6.25,6.25,0,0,1-2.25.4,4.78,4.78,0,0,1-3.3-1.1,4.72,4.72,0,0,1-1.29-1.92,7.73,7.73,0,0,1-.45-2.75,8.46,8.46,0,0,1,.4-2.74,5.47,5.47,0,0,1,1.11-2,4.52,4.52,0,0,1,1.73-1.18,6,6,0,0,1,2.24-.4A4.78,4.78,0,0,1,201.39,15.75Zm-4.65.88a2.66,2.66,0,0,0-1.06.77,4,4,0,0,0-.72,1.37,6.23,6.23,0,0,0-.28,2,8.26,8.26,0,0,0,.14,1.49,4.46,4.46,0,0,0,.49,1.34A2.62,2.62,0,0,0,197.74,25a3.36,3.36,0,0,0,1.26-.24,2.69,2.69,0,0,0,1.06-.78,4.17,4.17,0,0,0,.73-1.36,6.59,6.59,0,0,0,.27-2,8.46,8.46,0,0,0-.14-1.5,4.3,4.3,0,0,0-.49-1.33,2.65,2.65,0,0,0-.93-1,2.78,2.78,0,0,0-1.5-.37A3.36,3.36,0,0,0,196.74,16.63Z" transform="translate(-9.88 -9.77)"/><path class="cls-1" d="M209.55,24.24h0c.54-1.46,1.06-3,1.56-4.51s.91-3.09,1.25-4.64a.23.23,0,0,1,.15-.18,3.85,3.85,0,0,1,.78,0,4.52,4.52,0,0,1,.84.05c.13,0,.17.16.12.37a60.49,60.49,0,0,1-1.77,6c-.67,1.9-1.31,3.54-1.94,4.93a.41.41,0,0,1-.3.22,5,5,0,0,1-.87,0,4.82,4.82,0,0,1-.85,0,.33.33,0,0,1-.27-.22l-4-11a.18.18,0,0,1,.14-.26,4.71,4.71,0,0,1,.83-.05,5.59,5.59,0,0,1,.86.05c.17,0,.28.1.31.19Z" transform="translate(-9.88 -9.77)"/><path class="cls-1" d="M216.45,10.33a1.38,1.38,0,0,1,2,0,1.36,1.36,0,0,1,0,1.95,1.38,1.38,0,0,1-2,0,1.36,1.36,0,0,1,0-1.95Zm1.07,4.54a2.12,2.12,0,0,1,.78.08.21.21,0,0,1,.12.18V26.22a.22.22,0,0,1-.12.19,2.12,2.12,0,0,1-.78.08h-.14a2.86,2.86,0,0,1-.8-.07.21.21,0,0,1-.14-.2V15.13a.21.21,0,0,1,.14-.19,2.5,2.5,0,0,1,.8-.07Z" transform="translate(-9.88 -9.77)"/><path class="cls-1" d="M230,9.77a2.85,2.85,0,0,1,.71.05.22.22,0,0,1,.19.23V23.74a5.43,5.43,0,0,0,0,.65,1.09,1.09,0,0,0,.12.35.38.38,0,0,0,.25.15,1.9,1.9,0,0,0,.37,0c.07,0,.12,0,.15.13a1.51,1.51,0,0,1,.05.47v.15a2,2,0,0,1-.05.54.27.27,0,0,1-.15.19,2,2,0,0,1-.46.11l-.51,0a1.44,1.44,0,0,1-.91-.32,1.93,1.93,0,0,1-.61-1h0a3.5,3.5,0,0,1-1.3,1,4.57,4.57,0,0,1-2.06.44,4.24,4.24,0,0,1-3.46-1.53,6.57,6.57,0,0,1-1.25-4.26,8.48,8.48,0,0,1,.33-2.37,6.14,6.14,0,0,1,1-2A4.75,4.75,0,0,1,224,15.17a5,5,0,0,1,2.36-.52,4.42,4.42,0,0,1,1.38.22,4.12,4.12,0,0,1,1.11.5V10.05a.22.22,0,0,1,.19-.23,3.14,3.14,0,0,1,.76-.05Zm-1.08,7.48a3.39,3.39,0,0,0-1.07-.59,4,4,0,0,0-1.31-.23,2.94,2.94,0,0,0-2.47,1.2,5.2,5.2,0,0,0-.91,3.21,6,6,0,0,0,.23,1.79,3.74,3.74,0,0,0,.63,1.28,2.74,2.74,0,0,0,1,.77,2.77,2.77,0,0,0,1.2.27,3.9,3.9,0,0,0,1.15-.19,2.38,2.38,0,0,0,.94-.56,2,2,0,0,0,.51-1,11.38,11.38,0,0,0,.13-2.05Z" transform="translate(-9.88 -9.77)"/><path class="cls-1" d="M235.89,21.38A4.86,4.86,0,0,0,236.2,23a3,3,0,0,0,.79,1.13,3.73,3.73,0,0,0,2.59.79,7,7,0,0,0,2.91-.7.41.41,0,0,1,.26,0c.07,0,.17.17.29.45l.11.26a2.18,2.18,0,0,1,.17.58.27.27,0,0,1-.13.23,7.81,7.81,0,0,1-4,1,5.06,5.06,0,0,1-4-1.56,6.17,6.17,0,0,1-1.35-4.21,8.52,8.52,0,0,1,.36-2.54,5.84,5.84,0,0,1,1.06-2,4.78,4.78,0,0,1,1.66-1.3,5,5,0,0,1,2.2-.46,4.23,4.23,0,0,1,4,2.42,6.41,6.41,0,0,1,.55,1.65,9.34,9.34,0,0,1,.18,1.87,3.77,3.77,0,0,1,0,.65.18.18,0,0,1-.18.14Zm5.94-1.65a4.53,4.53,0,0,0-.17-1.21,3.27,3.27,0,0,0-.49-1.05,2.56,2.56,0,0,0-.85-.75,2.48,2.48,0,0,0-1.2-.29,3,3,0,0,0-2.07.79,4.11,4.11,0,0,0-1.1,2.51Z" transform="translate(-9.88 -9.77)"/><path class="cls-1" d="M247.46,14.87a3.59,3.59,0,0,1,.75.05.21.21,0,0,1,.15.21l0,2.27a5.16,5.16,0,0,1,1.49-2,2.81,2.81,0,0,1,1.73-.64,2.32,2.32,0,0,1,.46,0,.24.24,0,0,1,.18.15,1.52,1.52,0,0,1,0,.48v.33a3.17,3.17,0,0,1,0,.66.18.18,0,0,1-.2.16,3,3,0,0,0-1.05.17,2.72,2.72,0,0,0-.8.45,3.75,3.75,0,0,0-.63.63c-.18.24-.35.49-.52.75a4.12,4.12,0,0,0-.52,1.89c0,.31,0,.76-.06,1.37s0,1.23,0,1.88v2.52a.22.22,0,0,1-.12.19,2.12,2.12,0,0,1-.78.08h-.13a2.9,2.9,0,0,1-.81-.07.21.21,0,0,1-.14-.2v-7.5c0-.37,0-.74,0-1.11s0-.72,0-1,0-.6,0-.85,0-.45,0-.59a.2.2,0,0,1,.13-.19,2.23,2.23,0,0,1,.77-.07Z" transform="translate(-9.88 -9.77)"/></svg>